<?xml version="1.0" encoding="UTF-8"?>
<svg width="14px" height="11px" viewBox="0 0 14 11" version="1.1" xmlns="http://www.w3.org/2000/svg" xmlns:xlink="http://www.w3.org/1999/xlink">
    <!-- Generator: Sketch 50.2 (55047) - http://www.bohemiancoding.com/sketch -->
    <title>Group@2x</title>
    <desc>Created with Sketch.</desc>
    <defs></defs>
    <g id="wireframes" stroke="none" stroke-width="1" fill="none" fill-rule="evenodd">
        <g id="desktop-&gt;-1400px-navigation-design-idea-V3-fixed-contact-button-on-click" transform="translate(-1078.000000, -15.000000)" fill="#53CAAA">
            <g id="contact-us" transform="translate(1068.000000, 8.000000)">
                <g id="Group" transform="translate(10.000000, 7.000000)">
                    <path d="M1.34371233,3.39082428 C1.52082192,3.51577462 2.05464384,3.88698166 2.94527397,4.50415771 C3.83590411,5.12133375 4.51816438,5.59658616 4.99215068,5.92981903 C5.04421918,5.96635478 5.15487671,6.04575531 5.32412329,6.1681165 C5.49336986,6.29057359 5.6340411,6.38963245 5.74594521,6.46510131 C5.85794521,6.54057016 5.99334247,6.62524487 6.15223288,6.71893365 C6.31112329,6.81262244 6.46090411,6.88300889 6.60147945,6.92970944 C6.74215068,6.97669767 6.87236986,7 6.99213699,7 L7,7 L7.00786301,7 C7.12763014,7 7.25784932,6.97669767 7.39852055,6.92970944 C7.53909589,6.88300889 7.6889726,6.81252654 7.84776712,6.71893365 C8.00656164,6.62514898 8.1419589,6.54057016 8.2539589,6.46510131 C8.3659589,6.38963245 8.50653425,6.29057359 8.67578082,6.1681165 C8.8450274,6.04565941 8.95578082,5.96635478 9.00784932,5.92981903 C9.48691781,5.59649027 10.7057808,4.75012672 12.6640548,3.39063249 C13.0442603,3.12510103 13.3618493,2.804718 13.6171096,2.42967519 C13.8724658,2.05482417 14,1.66156143 14,1.25007877 C14,0.906297519 13.8762055,0.611997753 13.6288082,0.367179473 C13.381411,0.122361193 13.0883699,0 12.7499726,0 L1.24993151,0 C0.848917808,0 0.540342466,0.135402825 0.324205479,0.406208474 C0.108068493,0.677110018 0,1.01571297 0,1.42192145 C0,1.75007192 0.143260274,2.10564818 0.429684932,2.48845843 C0.716109589,2.87126868 1.02084932,3.17208926 1.34371233,3.39082428 L1.34371233,3.39082428 Z" id="Shape"></path>
                    <path d="M13.2186849,3.87820346 C11.5104932,5.06278546 10.2134795,5.98337378 9.32821918,6.63977192 C9.03134247,6.86387672 8.79046575,7.03875903 8.60549315,7.16402585 C8.42061644,7.28948917 8.17456164,7.41750694 7.86723288,7.54827568 C7.56,7.67904442 7.27357534,7.74437966 7.0079589,7.74437966 L7,7.74437966 L6.99213699,7.74437966 C6.72652055,7.74437966 6.44,7.67904442 6.13276712,7.54827568 C5.82553425,7.41750694 5.57938356,7.28948917 5.39450685,7.16402585 C5.20963014,7.03875903 4.96875342,6.86387672 4.67187671,6.63977192 C3.96871233,6.11148981 2.67447945,5.19090149 0.789082192,3.87820346 C0.492205479,3.67551683 0.229178082,3.44325741 0,3.18181818 L0,9.5373163 C0,9.88963537 0.122356164,10.1910617 0.367164384,10.4418901 C0.611972603,10.6928167 0.906260274,10.8181818 1.2500274,10.8181818 L12.7500685,10.8181818 C13.0937397,10.8181818 13.3880274,10.6928167 13.6328356,10.4418901 C13.8777397,10.1909635 14,9.88963537 14,9.5373163 L14,3.18181818 C13.776,3.43785374 13.5156575,3.67011316 13.2186849,3.87820346 L13.2186849,3.87820346 Z" id="Shape"></path>
                </g>
            </g>
        </g>
    </g>
</svg>